<?xml version="1.0" standalone="no"?>
<!DOCTYPE svg PUBLIC "-//W3C//DTD SVG 20010904//EN"
 "http://www.w3.org/TR/2001/REC-SVG-20010904/DTD/svg10.dtd">
<svg version="1.0" xmlns="http://www.w3.org/2000/svg"
 width="500.000000pt" height="500.000000pt" viewBox="0 0 500.000000 500.000000"
 preserveAspectRatio="xMidYMid meet">

<g transform="translate(0.000000,500.000000) scale(0.100000,-0.100000)"
fill="#000000" stroke="none">
<path d="M2231 4234 c-18 -15 -33 -39 -37 -60 -5 -26 -14 -38 -38 -48 -51 -22
-78 -59 -84 -116 -3 -29 1 -63 9 -82 9 -23 10 -33 1 -36 -24 -8 -76 -48 -95
-73 -28 -38 -34 -111 -12 -129 20 -16 135 -20 238 -8 51 6 57 4 57 -12 0 -10
-7 -25 -15 -33 -8 -8 -12 -17 -9 -19 2 -3 -9 -20 -26 -38 -29 -31 -32 -32 -92
-26 -94 9 -143 7 -146 -4 -2 -6 -8 -8 -13 -5 -5 4 -17 1 -26 -4 -17 -10 -16
-10 2 -11 16 -1 13 -4 -10 -14 -16 -7 -35 -10 -41 -5 -10 8 -186 -76 -192 -93
-2 -4 -8 -6 -13 -2 -18 11 -31 -7 -17 -24 11 -14 11 -14 -6 -5 -14 8 -32 4
-82 -20 -34 -17 -60 -35 -57 -40 3 -4 -1 -8 -8 -6 -27 3 -40 -1 -34 -11 3 -5
-1 -10 -9 -10 -9 0 -16 -7 -16 -15 0 -8 9 -15 20 -15 11 0 19 3 19 8 -3 18 3
46 8 35 2 -7 5 -16 5 -20 1 -13 37 -35 48 -28 6 3 10 -2 10 -12 0 -10 5 -25
10 -33 8 -11 9 -9 6 12 -6 38 4 69 23 67 49 -4 73 1 67 17 -3 8 -2 12 4 9 8
-5 30 -68 30 -87 0 -5 -7 -8 -15 -8 -8 0 -15 -7 -15 -15 0 -8 -6 -14 -12 -12
-8 1 -12 -7 -11 -18 1 -11 -4 -23 -10 -27 -12 -7 -15 -153 -4 -164 3 -3 18 2
34 12 85 53 162 105 170 116 11 14 27 177 28 286 1 44 5 66 15 72 11 7 16 4
20 -13 10 -43 58 -87 95 -87 8 0 15 -4 15 -10 0 -5 14 -10 30 -10 17 0 30 -4
30 -10 0 -5 24 -10 53 -10 45 0 53 -3 54 -19 1 -11 -5 -25 -13 -32 -8 -6 -14
-20 -14 -30 0 -11 -4 -19 -9 -19 -5 0 -17 -33 -27 -72 -9 -40 -19 -67 -22 -60
-9 29 -22 8 -22 -38 0 -27 4 -50 8 -50 14 0 54 -80 48 -95 -6 -18 12 -24 44
-14 14 5 46 13 72 20 48 12 48 12 68 78 24 81 28 87 63 100 43 16 86 13 133
-9 45 -22 68 -61 68 -114 0 -45 -40 -166 -66 -207 -30 -44 -110 -86 -195 -103
-113 -22 -243 -66 -243 -82 0 -17 -17 -19 -23 -1 -3 9 -9 9 -26 -1 -12 -7 -27
-10 -33 -6 -6 4 -8 3 -4 -4 3 -6 -2 -15 -11 -21 -10 -6 -13 -11 -8 -11 6 0 11
-33 12 -74 1 -41 6 -84 12 -94 45 -84 330 -96 556 -25 44 14 106 38 138 55 32
16 63 26 69 22 7 -4 8 -3 4 4 -4 7 -3 12 2 12 5 0 30 18 55 40 75 67 92 151
38 201 -23 22 -127 443 -139 564 -12 117 -35 162 -112 219 -68 50 -181 86
-297 94 -40 2 -73 9 -73 13 0 5 6 10 13 10 6 1 19 2 27 3 8 0 23 17 33 36 26
50 19 136 -15 187 l-26 39 34 32 c40 38 58 94 45 140 -9 32 -9 32 25 32 100 0
114 143 16 166 -15 4 -36 13 -47 20 -31 22 -80 17 -114 -12z m209 -883 c-29
-42 -36 -39 -8 3 13 19 24 33 26 31 3 -2 -6 -18 -18 -34z m-71 -108 c-34 -68
-35 -74 -11 -66 11 3 8 -1 -7 -12 -13 -10 -19 -20 -13 -24 6 -4 -2 -14 -19
-23 -35 -21 -38 -9 -12 49 16 35 81 133 88 133 1 0 -10 -26 -26 -57z"/>
<path d="M1900 3519 c0 -5 5 -7 10 -4 6 3 10 8 10 11 0 2 -4 4 -10 4 -5 0 -10
-5 -10 -11z"/>
<path d="M1655 3250 c-3 -5 1 -10 9 -10 9 0 16 5 16 10 0 6 -4 10 -9 10 -6 0
-13 -4 -16 -10z"/>
<path d="M1592 3031 c-11 -6 -11 -10 0 -18 32 -24 38 -24 38 1 0 26 -14 33
-38 17z"/>
<path d="M1117 2584 c-4 -4 3 -20 14 -35 14 -20 29 -29 48 -29 15 0 36 -6 46
-14 16 -12 18 -19 10 -43 -6 -15 -23 -34 -38 -41 -16 -8 -26 -16 -23 -19 10
-10 51 7 80 33 l28 25 -20 20 c-12 10 -28 34 -37 53 -20 43 -85 73 -108 50z"/>
<path d="M2890 2504 c0 -8 -4 -13 -8 -10 -4 2 -30 -13 -57 -35 -28 -21 -55
-39 -61 -39 -6 0 -17 -7 -24 -15 -7 -8 -16 -13 -20 -10 -5 3 -10 2 -12 -3 -4
-11 -138 -66 -211 -87 -120 -34 -341 -42 -414 -14 -33 12 -29 1 5 -13 28 -11
35 -12 117 -18 33 -2 41 -4 25 -8 -23 -4 -24 -5 -5 -13 18 -7 18 -8 2 -8 -10
-1 -27 4 -39 10 -11 6 -22 9 -24 6 -3 -2 10 -12 28 -20 20 -10 26 -17 16 -17
-25 0 -22 -12 12 -55 33 -41 38 -54 15 -35 -22 19 -108 61 -112 56 -3 -2 3
-16 12 -30 14 -21 14 -26 4 -27 -8 -1 -3 -4 10 -8 25 -7 33 -18 48 -66 4 -16
15 -30 23 -30 15 0 32 -49 21 -61 -3 -4 0 -4 7 0 7 4 12 2 12 -7 0 -16 34 -50
42 -42 3 3 3 -5 1 -19 -3 -13 2 -37 10 -53 26 -50 48 -137 48 -188 0 -49 -4
-95 -7 -95 -1 0 -14 7 -30 15 l-28 14 25 10 c16 6 18 10 7 10 -9 1 -25 4 -35
7 -12 4 -14 3 -6 -3 7 -5 11 -19 9 -30 -5 -22 16 -38 44 -34 12 2 12 0 3 -10
-10 -10 -9 -16 3 -31 13 -14 21 -15 38 -6 19 10 20 10 7 -6 -8 -9 -10 -16 -5
-15 25 4 45 -2 38 -13 -5 -8 -2 -9 9 -5 11 4 17 1 17 -9 0 -9 6 -14 13 -11 6
2 23 -4 36 -14 18 -15 27 -16 43 -8 15 8 19 8 14 0 -4 -6 -2 -11 4 -11 6 0 8
-4 5 -10 -3 -5 3 -10 15 -10 13 0 19 -4 14 -11 -4 -7 2 -6 17 2 23 12 23 11 9
-6 -9 -11 -10 -16 -2 -11 6 4 12 2 12 -3 0 -6 5 -11 11 -11 5 0 7 5 4 10 -11
18 15 10 36 -11 l22 -22 -6 24 c-3 13 -11 53 -17 89 -6 36 -31 142 -55 235
-24 94 -46 184 -48 200 -3 17 -10 45 -16 63 -5 17 -8 32 -5 32 3 0 0 9 -6 20
-11 21 -4 64 9 56 9 -6 41 29 41 44 0 6 9 10 20 10 17 0 19 3 10 19 -6 12 -6
22 -1 25 5 4 11 0 14 -6 3 -10 7 -10 20 0 9 8 21 11 28 7 8 -6 8 -9 -1 -15 -9
-5 -7 -12 8 -26 10 -11 24 -37 30 -59 14 -49 53 -157 76 -210 10 -22 27 -65
37 -94 11 -30 25 -64 33 -75 7 -12 23 -61 35 -111 13 -49 29 -97 36 -105 17
-20 35 -86 35 -132 0 -20 5 -40 10 -43 15 -9 12 -23 -10 -42 -11 -10 -20 -23
-20 -30 0 -7 -6 -13 -12 -13 -9 0 -8 -4 2 -10 16 -10 8 -14 -24 -10 -11 1 -15
-3 -12 -9 9 -14 0 -14 -26 0 -13 7 -18 7 -14 1 3 -6 1 -14 -5 -18 -18 -11 32
-34 60 -27 16 4 22 2 17 -5 -6 -10 51 -9 99 2 11 2 25 5 30 5 15 2 68 52 100
96 17 22 32 42 35 45 14 14 48 69 61 98 7 17 19 32 24 32 6 0 19 14 29 31 11
18 14 29 8 25 -8 -5 -10 -2 -6 8 3 9 11 13 17 9 6 -4 8 0 4 11 -4 10 -3 15 3
11 6 -3 10 -1 10 5 0 6 4 9 8 6 5 -3 9 1 10 9 1 8 3 22 4 30 1 8 5 12 9 9 4
-2 15 6 23 18 46 65 -9 157 -144 246 -47 31 -65 37 -122 40 -64 4 -68 3 -77
-19 -9 -22 -10 -22 -12 -4 -1 11 -1 23 0 28 0 4 -4 7 -10 7 -5 0 -8 4 -5 8 3
5 -2 21 -10 36 -17 35 -18 39 -1 30 10 -6 10 -4 0 7 -7 7 -13 23 -13 35 0 13
-4 25 -9 28 -8 5 -16 35 -25 96 -8 52 -37 145 -48 151 -7 4 -6 8 3 12 9 4 10
8 4 14 -5 4 -11 15 -11 23 -1 8 -11 51 -23 94 -13 47 -19 91 -16 108 4 15 4
28 1 28 -3 0 -6 -7 -6 -16z m-280 -388 c0 -3 -4 -8 -10 -11 -5 -3 -10 -1 -10
4 0 6 5 11 10 11 6 0 10 -2 10 -4z m471 -389 c-10 -9 -11 -8 -5 6 3 10 9 15
12 12 3 -3 0 -11 -7 -18z m-717 -223 c3 -8 2 -12 -4 -9 -6 3 -10 10 -10 16 0
14 7 11 14 -7z m166 -86 c0 -6 -6 -5 -15 2 -8 7 -15 14 -15 16 0 2 7 1 15 -2
8 -4 15 -11 15 -16z m410 -292 c0 -2 -9 -6 -20 -9 -11 -3 -20 -1 -20 4 0 5 9
9 20 9 11 0 20 -2 20 -4z"/>
<path d="M1308 2412 c4 -29 -10 -51 -46 -71 -25 -14 -8 -23 19 -11 13 6 32 25
42 42 17 30 17 32 -1 50 -18 19 -19 19 -14 -10z"/>
<path d="M2590 1901 c0 -11 4 -22 9 -25 4 -3 6 6 3 19 -5 30 -12 33 -12 6z"/>
<path d="M3575 1723 c-57 -3 -73 -8 -83 -23 -37 -61 95 -115 203 -83 46 14 64
27 65 46 0 4 -26 7 -57 7 -55 0 -56 1 -35 16 29 20 29 45 0 42 -13 -1 -55 -4
-93 -5z"/>
<path d="M2274 1628 c-4 -7 -3 -8 5 -4 6 4 18 2 26 -4 9 -7 15 -8 15 -2 0 5
-7 13 -16 16 -21 8 -22 8 -30 -6z"/>
<path d="M2665 1330 c3 -5 8 -10 11 -10 2 0 4 5 4 10 0 6 -5 10 -11 10 -5 0
-7 -4 -4 -10z"/>
<path d="M2825 1140 c-3 -6 1 -7 9 -4 18 7 21 14 7 14 -6 0 -13 -4 -16 -10z"/>
<path d="M3062 948 c3 -20 12 -24 83 -35 152 -22 210 -14 186 25 -10 17 -102
32 -193 32 -77 0 -79 -1 -76 -22z"/>
<path d="M3063 834 c-3 -8 -2 -19 3 -24 10 -10 123 -28 204 -32 50 -3 55 -1
58 19 4 26 -5 29 -118 43 -115 14 -140 13 -147 -6z"/>
</g>
</svg>
